<svg width="123" height="59" viewBox="0 0 123 59" fill="none" xmlns="http://www.w3.org/2000/svg">
<g filter="url(#filter0_d_2_524)">
<path d="M14.772 35.288C11.58 35.288 9.024 34.688 7.104 33.488C5.184 32.264 4.224 30.404 4.224 27.908C4.224 26.588 4.452 25.58 4.908 24.884C5.364 24.188 6.036 23.84 6.924 23.84C7.572 23.84 8.1 24.008 8.508 24.344C8.916 24.68 9.12 25.112 9.12 25.64C9.12 26.12 9.084 26.54 9.012 26.9C9.012 26.996 8.988 27.164 8.94 27.404C8.916 27.644 8.904 27.896 8.904 28.16C8.904 29.24 9.444 30.044 10.524 30.572C11.628 31.1 13.164 31.364 15.132 31.364C17.172 31.364 18.768 31.004 19.92 30.284C21.072 29.54 21.648 28.508 21.648 27.188C21.648 26.372 21.384 25.676 20.856 25.1C20.328 24.5 19.668 24.008 18.876 23.624C18.084 23.216 16.968 22.724 15.528 22.148C13.68 21.428 12.168 20.744 10.992 20.096C9.84 19.448 8.844 18.572 8.004 17.468C7.188 16.34 6.78 14.948 6.78 13.292C6.78 11.564 7.236 10.028 8.148 8.68398C9.084 7.33997 10.416 6.29597 12.144 5.55198C13.896 4.80797 15.948 4.43597 18.3 4.43597C20.052 4.43597 21.66 4.69997 23.124 5.22797C24.588 5.73197 25.752 6.51197 26.616 7.56797C27.504 8.62397 27.948 9.91997 27.948 11.456C27.948 12.968 27.72 14.108 27.264 14.876C26.808 15.644 26.136 16.028 25.248 16.028C24.624 16.028 24.096 15.836 23.664 15.452C23.256 15.068 23.052 14.612 23.052 14.084C23.052 13.628 23.088 13.208 23.16 12.824C23.232 12.104 23.268 11.648 23.268 11.456C23.268 10.448 22.776 9.67997 21.792 9.15197C20.808 8.62397 19.584 8.35998 18.12 8.35998C16.056 8.35998 14.472 8.74397 13.368 9.51197C12.288 10.256 11.748 11.312 11.748 12.68C11.748 13.592 12.024 14.372 12.576 15.02C13.152 15.668 13.86 16.208 14.7 16.64C15.54 17.072 16.716 17.588 18.228 18.188C20.052 18.932 21.516 19.604 22.62 20.204C23.724 20.804 24.66 21.62 25.428 22.652C26.22 23.684 26.616 24.956 26.616 26.468C26.616 29.3 25.536 31.484 23.376 33.02C21.24 34.532 18.372 35.288 14.772 35.288Z" fill="url(#paint0_linear_2_524)"/>
<path d="M34.2292 15.848C33.2212 15.848 32.4652 15.62 31.9612 15.164C31.4572 14.684 31.2052 14.024 31.2052 13.184C31.2052 12.344 31.5292 11.648 32.1772 11.096C32.8492 10.52 33.6772 10.232 34.6612 10.232C35.5492 10.232 36.2692 10.448 36.8212 10.88C37.3732 11.312 37.6492 11.924 37.6492 12.716C37.6492 13.676 37.3372 14.444 36.7132 15.02C36.0892 15.572 35.2612 15.848 34.2292 15.848ZM33.9412 35.18C32.3812 35.18 31.2412 34.628 30.5212 33.524C29.8252 32.42 29.4772 30.956 29.4772 29.132C29.4772 28.052 29.6092 26.672 29.8732 24.992C30.1612 23.288 30.5212 21.704 30.9532 20.24C31.1692 19.472 31.4572 18.944 31.8172 18.656C32.1772 18.368 32.7532 18.224 33.5452 18.224C34.7692 18.224 35.3812 18.632 35.3812 19.448C35.3812 20.048 35.1532 21.44 34.6972 23.624C34.1212 26.264 33.8332 28.052 33.8332 28.988C33.8332 29.708 33.9292 30.26 34.1212 30.644C34.3132 31.028 34.6372 31.22 35.0932 31.22C35.5252 31.22 36.0652 30.92 36.7132 30.32C37.3612 29.72 38.2252 28.772 39.3052 27.476C39.5932 27.14 39.9172 26.972 40.2772 26.972C40.5892 26.972 40.8292 27.116 40.9972 27.404C41.1892 27.692 41.2852 28.088 41.2852 28.592C41.2852 29.552 41.0572 30.296 40.6012 30.824C38.2252 33.728 36.0052 35.18 33.9412 35.18Z" fill="url(#paint1_linear_2_524)"/>
<path d="M56.8045 27.044C57.1165 27.044 57.3565 27.2 57.5245 27.512C57.7165 27.8 57.8125 28.172 57.8125 28.628C57.8125 29.18 57.7285 29.612 57.5605 29.924C57.3925 30.236 57.1285 30.512 56.7685 30.752C54.7045 32.144 53.1925 33.176 52.2325 33.848L49.9285 35.396C49.0165 40.364 47.8165 44.264 46.3285 47.096C44.8645 49.952 42.9925 51.38 40.7125 51.38C39.4885 51.38 38.4925 50.996 37.7245 50.228C36.9565 49.484 36.5725 48.5 36.5725 47.276C36.5725 45.572 37.2445 43.736 38.5885 41.768C39.9325 39.824 42.4525 37.424 46.1485 34.568L46.3645 33.164C45.9565 33.812 45.4165 34.316 44.7445 34.676C44.0965 35.012 43.4485 35.18 42.8005 35.18C41.3125 35.18 40.1245 34.64 39.2365 33.56C38.3485 32.48 37.9045 31.064 37.9045 29.312C37.9045 27.392 38.3485 25.58 39.2365 23.876C40.1245 22.148 41.3005 20.768 42.7645 19.736C44.2525 18.68 45.8245 18.152 47.4805 18.152C48.0085 18.152 48.3565 18.26 48.5245 18.476C48.7165 18.668 48.8725 19.028 48.9925 19.556C49.4485 19.46 49.9765 19.412 50.5765 19.412C51.1765 19.412 51.5965 19.508 51.8365 19.7C52.1005 19.868 52.2325 20.216 52.2325 20.744C52.2325 21.032 52.2205 21.26 52.1965 21.428C52.1005 22.172 51.8005 24.056 51.2965 27.08C51.2005 27.656 51.0925 28.292 50.9725 28.988C50.8765 29.66 50.7685 30.38 50.6485 31.148C52.4965 29.708 54.2725 28.436 55.9765 27.332C56.2885 27.14 56.5645 27.044 56.8045 27.044ZM44.0965 31.544C44.6485 31.544 45.1765 31.208 45.6805 30.536C46.1845 29.864 46.5445 28.904 46.7605 27.656L47.9125 21.5C46.9285 21.524 46.0165 21.908 45.1765 22.652C44.3365 23.372 43.6645 24.332 43.1605 25.532C42.6565 26.732 42.4045 28.004 42.4045 29.348C42.4045 30.092 42.5485 30.644 42.8365 31.004C43.1485 31.364 43.5685 31.544 44.0965 31.544ZM41.1085 47.888C41.7085 47.888 42.3805 47.168 43.1245 45.728C43.8925 44.288 44.6245 41.996 45.3205 38.852C43.4725 40.436 42.1405 41.864 41.3245 43.136C40.5085 44.408 40.1005 45.524 40.1005 46.484C40.1005 46.892 40.1725 47.228 40.3165 47.492C40.4845 47.756 40.7485 47.888 41.1085 47.888Z" fill="url(#paint2_linear_2_524)"/>
<path d="M75.5791 26.972C75.8911 26.972 76.1311 27.116 76.2991 27.404C76.4911 27.692 76.5871 28.088 76.5871 28.592C76.5871 29.552 76.3591 30.296 75.9031 30.824C74.7991 32.096 73.6591 33.14 72.4831 33.956C71.3311 34.772 70.0111 35.18 68.5231 35.18C67.2991 35.18 66.3751 34.832 65.7511 34.136C65.1271 33.416 64.8151 32.384 64.8151 31.04C64.8151 30.368 64.9831 29.168 65.3191 27.44C65.6311 25.928 65.7871 24.884 65.7871 24.308C65.7871 23.924 65.6551 23.732 65.3911 23.732C65.0791 23.732 64.6351 24.14 64.0591 24.956C63.4831 25.748 62.9071 26.804 62.3311 28.124C61.7551 29.444 61.2871 30.836 60.9271 32.3C60.4711 34.22 59.3431 35.18 57.5431 35.18C56.8231 35.18 56.3431 34.928 56.1031 34.424C55.8871 33.896 55.7791 32.96 55.7791 31.616C55.7791 30.848 55.7911 30.236 55.8151 29.78L55.8511 26.9C55.8511 23.204 56.2231 19.352 56.9671 15.344C57.7351 11.336 58.8511 7.97597 60.3151 5.26397C61.8031 2.52797 63.5791 1.15997 65.6431 1.15997C66.7471 1.15997 67.6351 1.63997 68.3071 2.59997C69.0031 3.53597 69.3511 4.75997 69.3511 6.27197C69.3511 8.69597 68.6431 11.216 67.2271 13.832C65.8111 16.424 63.5071 19.46 60.3151 22.94C60.2431 24.188 60.2071 25.472 60.2071 26.792C60.9991 24.752 61.8751 23.096 62.8351 21.824C63.8191 20.528 64.7791 19.604 65.7151 19.052C66.6751 18.5 67.5511 18.224 68.3431 18.224C69.9031 18.224 70.6831 19.004 70.6831 20.564C70.6831 21.5 70.4191 23.192 69.8911 25.64C69.4351 27.728 69.2071 29.108 69.2071 29.78C69.2071 30.74 69.5551 31.22 70.2511 31.22C70.7311 31.22 71.2951 30.932 71.9431 30.356C72.6151 29.756 73.5031 28.796 74.6071 27.476C74.8951 27.14 75.2191 26.972 75.5791 26.972ZM64.8871 4.72397C64.4551 4.72397 63.9751 5.34797 63.4471 6.59597C62.9191 7.81997 62.4031 9.48797 61.8991 11.6C61.4191 13.688 61.0231 15.968 60.7111 18.44C62.1991 16.688 63.4231 14.78 64.3831 12.716C65.3671 10.652 65.8591 8.77997 65.8591 7.09997C65.8591 6.33197 65.7751 5.74397 65.6071 5.33597C65.4391 4.92797 65.1991 4.72397 64.8871 4.72397Z" fill="url(#paint3_linear_2_524)"/>
<path d="M89.7254 26.972C90.0374 26.972 90.2774 27.116 90.4454 27.404C90.6374 27.692 90.7334 28.088 90.7334 28.592C90.7334 29.552 90.5054 30.296 90.0494 30.824C89.0174 32.096 87.8894 33.14 86.6654 33.956C85.4414 34.772 84.0374 35.18 82.4534 35.18C77.5574 35.18 75.1094 31.736 75.1094 24.848C75.1094 23.792 75.1454 22.724 75.2174 21.644H73.8134C73.0934 21.644 72.6014 21.512 72.3374 21.248C72.0974 20.984 71.9774 20.564 71.9774 19.988C71.9774 18.644 72.5174 17.972 73.5974 17.972H75.6494C76.0574 15.332 76.6814 12.92 77.5214 10.736C78.3614 8.55197 79.3694 6.81197 80.5454 5.51597C81.7454 4.21997 83.0294 3.57197 84.3974 3.57197C85.4054 3.57197 86.1974 4.01597 86.7734 4.90397C87.3494 5.79197 87.6374 6.90797 87.6374 8.25197C87.6374 11.972 86.0774 15.212 82.9574 17.972H86.9894C87.3734 17.972 87.6494 18.056 87.8174 18.224C87.9854 18.392 88.0694 18.704 88.0694 19.16C88.0694 20.816 86.7134 21.644 84.0014 21.644H79.6094C79.5614 22.844 79.5374 23.78 79.5374 24.452C79.5374 26.948 79.8254 28.7 80.4014 29.708C81.0014 30.716 81.9374 31.22 83.2094 31.22C84.2414 31.22 85.1534 30.908 85.9454 30.284C86.7374 29.66 87.6734 28.724 88.7534 27.476C89.0414 27.14 89.3654 26.972 89.7254 26.972ZM83.4254 7.02798C83.0654 7.02798 82.6574 7.48398 82.2014 8.39598C81.7694 9.28398 81.3494 10.532 80.9414 12.14C80.5574 13.724 80.2334 15.488 79.9694 17.432C81.3854 16.208 82.4414 14.84 83.1374 13.328C83.8574 11.792 84.2174 10.4 84.2174 9.15197C84.2174 7.73597 83.9534 7.02798 83.4254 7.02798Z" fill="url(#paint4_linear_2_524)"/>
<path d="M91.4742 35.18C90.3942 35.18 89.5062 34.688 88.8102 33.704C88.1382 32.696 87.8022 31.448 87.8022 29.96C87.8022 28.16 87.9222 26.516 88.1622 25.028C88.4022 23.516 88.7982 21.92 89.3502 20.24C89.5902 19.52 89.9262 19.004 90.3582 18.692C90.7902 18.38 91.4742 18.224 92.4102 18.224C92.9382 18.224 93.2982 18.308 93.4902 18.476C93.7062 18.644 93.8142 18.896 93.8142 19.232C93.8142 19.424 93.6822 20.072 93.4182 21.176C93.1782 22.064 92.9862 22.868 92.8422 23.588C92.3622 26.108 92.1222 27.788 92.1222 28.628C92.1222 29.132 92.1822 29.492 92.3022 29.708C92.4222 29.9 92.6142 29.996 92.8782 29.996C93.2382 29.996 93.6822 29.636 94.2102 28.916C94.7622 28.196 95.3382 27.104 95.9382 25.64C96.5622 24.176 97.1622 22.376 97.7382 20.24C97.9302 19.52 98.2182 19.004 98.6022 18.692C99.0102 18.38 99.6102 18.224 100.402 18.224C100.954 18.224 101.338 18.296 101.554 18.44C101.77 18.56 101.878 18.8 101.878 19.16C101.878 19.76 101.578 21.404 100.978 24.092C100.306 27.164 99.9702 29.06 99.9702 29.78C99.9702 30.236 100.066 30.596 100.258 30.86C100.45 31.1 100.702 31.22 101.014 31.22C101.494 31.22 102.058 30.932 102.706 30.356C103.378 29.756 104.266 28.796 105.37 27.476C105.658 27.14 105.982 26.972 106.342 26.972C106.654 26.972 106.894 27.116 107.062 27.404C107.254 27.692 107.35 28.088 107.35 28.592C107.35 29.552 107.122 30.296 106.666 30.824C105.634 32.096 104.518 33.14 103.318 33.956C102.142 34.772 100.798 35.18 99.2862 35.18C98.1342 35.18 97.2822 34.736 96.7302 33.848C96.2022 32.96 95.9382 31.712 95.9382 30.104C95.5302 31.736 94.9182 32.996 94.1022 33.884C93.2862 34.748 92.4102 35.18 91.4742 35.18Z" fill="url(#paint5_linear_2_524)"/>
<path d="M118.687 24.02C118.687 25.916 118.243 27.716 117.355 29.42C116.491 31.1 115.327 32.468 113.863 33.524C112.423 34.58 110.875 35.132 109.219 35.18C108.907 39.812 108.199 43.676 107.095 46.772C105.991 49.892 104.371 51.452 102.235 51.452C100.939 51.452 99.9791 50.984 99.3551 50.048C98.7311 49.112 98.4191 47.816 98.4191 46.16C98.4191 43.808 98.9591 41.06 100.039 37.916C101.119 34.796 102.787 31.352 105.043 27.584C105.043 24.08 105.019 21.644 104.971 20.276C104.947 19.58 105.223 19.028 105.799 18.62C106.375 18.212 107.095 18.008 107.959 18.008C108.463 18.008 108.823 18.116 109.039 18.332C109.279 18.524 109.411 18.92 109.435 19.52C109.435 20.12 109.447 20.564 109.471 20.852C110.239 19.892 110.995 19.208 111.739 18.8C112.483 18.368 113.275 18.152 114.115 18.152C115.459 18.152 116.551 18.692 117.391 19.772C118.255 20.852 118.687 22.268 118.687 24.02ZM109.399 31.724C110.263 31.532 111.055 31.064 111.775 30.32C112.519 29.552 113.107 28.616 113.539 27.512C113.971 26.384 114.187 25.208 114.187 23.984C114.187 23.264 114.043 22.724 113.755 22.364C113.467 21.98 113.083 21.788 112.603 21.788C111.739 21.788 110.695 22.7 109.471 24.524C109.447 25.58 109.435 27.128 109.435 29.168C109.435 30.272 109.423 31.124 109.399 31.724ZM102.523 47.924C103.171 47.924 103.711 46.508 104.143 43.676C104.575 40.868 104.851 37.364 104.971 33.164C103.939 35.564 103.123 37.856 102.523 40.04C101.923 42.224 101.623 44.06 101.623 45.548C101.623 46.316 101.719 46.904 101.911 47.312C102.079 47.72 102.283 47.924 102.523 47.924Z" fill="url(#paint6_linear_2_524)"/>
</g>
<defs>
<filter id="filter0_d_2_524" x="0.223999" y="0.159973" width="122.463" height="58.292" filterUnits="userSpaceOnUse" color-interpolation-filters="sRGB">
<feFlood flood-opacity="0" result="BackgroundImageFix"/>
<feColorMatrix in="SourceAlpha" type="matrix" values="0 0 0 0 0 0 0 0 0 0 0 0 0 0 0 0 0 0 127 0" result="hardAlpha"/>
<feOffset dy="3"/>
<feGaussianBlur stdDeviation="2"/>
<feComposite in2="hardAlpha" operator="out"/>
<feColorMatrix type="matrix" values="0 0 0 0 0 0 0 0 0 0 0 0 0 0 0 0 0 0 0.17 0"/>
<feBlend mode="normal" in2="BackgroundImageFix" result="effect1_dropShadow_2_524"/>
<feBlend mode="normal" in="SourceGraphic" in2="effect1_dropShadow_2_524" result="shape"/>
</filter>
<linearGradient id="paint0_linear_2_524" x1="3" y1="-12" x2="132" y2="-12" gradientUnits="userSpaceOnUse">
<stop stop-color="#A18CB4"/>
<stop offset="1" stop-color="#FEC4A1"/>
</linearGradient>
<linearGradient id="paint1_linear_2_524" x1="3" y1="-12" x2="132" y2="-12" gradientUnits="userSpaceOnUse">
<stop stop-color="#A18CB4"/>
<stop offset="1" stop-color="#FEC4A1"/>
</linearGradient>
<linearGradient id="paint2_linear_2_524" x1="3" y1="-12" x2="132" y2="-12" gradientUnits="userSpaceOnUse">
<stop stop-color="#A18CB4"/>
<stop offset="1" stop-color="#FEC4A1"/>
</linearGradient>
<linearGradient id="paint3_linear_2_524" x1="3" y1="-12" x2="132" y2="-12" gradientUnits="userSpaceOnUse">
<stop stop-color="#A18CB4"/>
<stop offset="1" stop-color="#FEC4A1"/>
</linearGradient>
<linearGradient id="paint4_linear_2_524" x1="3" y1="-12" x2="132" y2="-12" gradientUnits="userSpaceOnUse">
<stop stop-color="#A18CB4"/>
<stop offset="1" stop-color="#FEC4A1"/>
</linearGradient>
<linearGradient id="paint5_linear_2_524" x1="3" y1="-12" x2="132" y2="-12" gradientUnits="userSpaceOnUse">
<stop stop-color="#A18CB4"/>
<stop offset="1" stop-color="#FEC4A1"/>
</linearGradient>
<linearGradient id="paint6_linear_2_524" x1="3" y1="-12" x2="132" y2="-12" gradientUnits="userSpaceOnUse">
<stop stop-color="#A18CB4"/>
<stop offset="1" stop-color="#FEC4A1"/>
</linearGradient>
</defs>
</svg>
