<svg width="115" height="51" viewBox="0 0 115 51" fill="none" xmlns="http://www.w3.org/2000/svg">
<path d="M10.772 34.288C7.58 34.288 5.024 33.688 3.104 32.488C1.184 31.264 0.223999 29.404 0.223999 26.908C0.223999 25.588 0.451999 24.58 0.907999 23.884C1.364 23.188 2.036 22.84 2.924 22.84C3.572 22.84 4.1 23.008 4.508 23.344C4.916 23.68 5.12 24.112 5.12 24.64C5.12 25.12 5.084 25.54 5.012 25.9C5.012 25.996 4.988 26.164 4.94 26.404C4.916 26.644 4.904 26.896 4.904 27.16C4.904 28.24 5.444 29.044 6.524 29.572C7.628 30.1 9.164 30.364 11.132 30.364C13.172 30.364 14.768 30.004 15.92 29.284C17.072 28.54 17.648 27.508 17.648 26.188C17.648 25.372 17.384 24.676 16.856 24.1C16.328 23.5 15.668 23.008 14.876 22.624C14.084 22.216 12.968 21.724 11.528 21.148C9.68 20.428 8.168 19.744 6.992 19.096C5.84 18.448 4.844 17.572 4.004 16.468C3.188 15.34 2.78 13.948 2.78 12.292C2.78 10.564 3.236 9.02798 4.148 7.68398C5.084 6.33997 6.416 5.29597 8.144 4.55198C9.896 3.80797 11.948 3.43597 14.3 3.43597C16.052 3.43597 17.66 3.69997 19.124 4.22797C20.588 4.73197 21.752 5.51197 22.616 6.56797C23.504 7.62397 23.948 8.91997 23.948 10.456C23.948 11.968 23.72 13.108 23.264 13.876C22.808 14.644 22.136 15.028 21.248 15.028C20.624 15.028 20.096 14.836 19.664 14.452C19.256 14.068 19.052 13.612 19.052 13.084C19.052 12.628 19.088 12.208 19.16 11.824C19.232 11.104 19.268 10.648 19.268 10.456C19.268 9.44797 18.776 8.67997 17.792 8.15197C16.808 7.62397 15.584 7.35998 14.12 7.35998C12.056 7.35998 10.472 7.74397 9.368 8.51197C8.288 9.25597 7.748 10.312 7.748 11.68C7.748 12.592 8.024 13.372 8.576 14.02C9.152 14.668 9.86 15.208 10.7 15.64C11.54 16.072 12.716 16.588 14.228 17.188C16.052 17.932 17.516 18.604 18.62 19.204C19.724 19.804 20.66 20.62 21.428 21.652C22.22 22.684 22.616 23.956 22.616 25.468C22.616 28.3 21.536 30.484 19.376 32.02C17.24 33.532 14.372 34.288 10.772 34.288Z" fill="url(#paint0_linear_2_524)"/>
<path d="M30.2292 14.848C29.2212 14.848 28.4652 14.62 27.9612 14.164C27.4572 13.684 27.2052 13.024 27.2052 12.184C27.2052 11.344 27.5292 10.648 28.1772 10.096C28.8492 9.51997 29.6772 9.23197 30.6612 9.23197C31.5492 9.23197 32.2692 9.44797 32.8212 9.87997C33.3732 10.312 33.6492 10.924 33.6492 11.716C33.6492 12.676 33.3372 13.444 32.7132 14.02C32.0892 14.572 31.2612 14.848 30.2292 14.848ZM29.9412 34.18C28.3812 34.18 27.2412 33.628 26.5212 32.524C25.8252 31.42 25.4772 29.956 25.4772 28.132C25.4772 27.052 25.6092 25.672 25.8732 23.992C26.1612 22.288 26.5212 20.704 26.9532 19.24C27.1692 18.472 27.4572 17.944 27.8172 17.656C28.1772 17.368 28.7532 17.224 29.5452 17.224C30.7692 17.224 31.3812 17.632 31.3812 18.448C31.3812 19.048 31.1532 20.44 30.6972 22.624C30.1212 25.264 29.8332 27.052 29.8332 27.988C29.8332 28.708 29.9292 29.26 30.1212 29.644C30.3132 30.028 30.6372 30.22 31.0932 30.22C31.5252 30.22 32.0652 29.92 32.7132 29.32C33.3612 28.72 34.2252 27.772 35.3052 26.476C35.5932 26.14 35.9172 25.972 36.2772 25.972C36.5892 25.972 36.8292 26.116 36.9972 26.404C37.1892 26.692 37.2852 27.088 37.2852 27.592C37.2852 28.552 37.0572 29.296 36.6012 29.824C34.2252 32.728 32.0052 34.18 29.9412 34.18Z" fill="url(#paint1_linear_2_524)"/>
<path d="M52.8045 26.044C53.1165 26.044 53.3565 26.2 53.5245 26.512C53.7165 26.8 53.8125 27.172 53.8125 27.628C53.8125 28.18 53.7285 28.612 53.5605 28.924C53.3925 29.236 53.1285 29.512 52.7685 29.752C50.7045 31.144 49.1925 32.176 48.2325 32.848L45.9285 34.396C45.0165 39.364 43.8165 43.264 42.3285 46.096C40.8645 48.952 38.9925 50.38 36.7125 50.38C35.4885 50.38 34.4925 49.996 33.7245 49.228C32.9565 48.484 32.5725 47.5 32.5725 46.276C32.5725 44.572 33.2445 42.736 34.5885 40.768C35.9325 38.824 38.4525 36.424 42.1485 33.568L42.3645 32.164C41.9565 32.812 41.4165 33.316 40.7445 33.676C40.0965 34.012 39.4485 34.18 38.8005 34.18C37.3125 34.18 36.1245 33.64 35.2365 32.56C34.3485 31.48 33.9045 30.064 33.9045 28.312C33.9045 26.392 34.3485 24.58 35.2365 22.876C36.1245 21.148 37.3005 19.768 38.7645 18.736C40.2525 17.68 41.8245 17.152 43.4805 17.152C44.0085 17.152 44.3565 17.26 44.5245 17.476C44.7165 17.668 44.8725 18.028 44.9925 18.556C45.4485 18.46 45.9765 18.412 46.5765 18.412C47.1765 18.412 47.5965 18.508 47.8365 18.7C48.1005 18.868 48.2325 19.216 48.2325 19.744C48.2325 20.032 48.2205 20.26 48.1965 20.428C48.1005 21.172 47.8005 23.056 47.2965 26.08C47.2005 26.656 47.0925 27.292 46.9725 27.988C46.8765 28.66 46.7685 29.38 46.6485 30.148C48.4965 28.708 50.2725 27.436 51.9765 26.332C52.2885 26.14 52.5645 26.044 52.8045 26.044ZM40.0965 30.544C40.6485 30.544 41.1765 30.208 41.6805 29.536C42.1845 28.864 42.5445 27.904 42.7605 26.656L43.9125 20.5C42.9285 20.524 42.0165 20.908 41.1765 21.652C40.3365 22.372 39.6645 23.332 39.1605 24.532C38.6565 25.732 38.4045 27.004 38.4045 28.348C38.4045 29.092 38.5485 29.644 38.8365 30.004C39.1485 30.364 39.5685 30.544 40.0965 30.544ZM37.1085 46.888C37.7085 46.888 38.3805 46.168 39.1245 44.728C39.8925 43.288 40.6245 40.996 41.3205 37.852C39.4725 39.436 38.1405 40.864 37.3245 42.136C36.5085 43.408 36.1005 44.524 36.1005 45.484C36.1005 45.892 36.1725 46.228 36.3165 46.492C36.4845 46.756 36.7485 46.888 37.1085 46.888Z" fill="url(#paint2_linear_2_524)"/>
<path d="M71.5791 25.972C71.8911 25.972 72.1311 26.116 72.2991 26.404C72.4911 26.692 72.5871 27.088 72.5871 27.592C72.5871 28.552 72.3591 29.296 71.9031 29.824C70.7991 31.096 69.6591 32.14 68.4831 32.956C67.3311 33.772 66.0111 34.18 64.5231 34.18C63.2991 34.18 62.3751 33.832 61.7511 33.136C61.1271 32.416 60.8151 31.384 60.8151 30.04C60.8151 29.368 60.9831 28.168 61.3191 26.44C61.6311 24.928 61.7871 23.884 61.7871 23.308C61.7871 22.924 61.6551 22.732 61.3911 22.732C61.0791 22.732 60.6351 23.14 60.0591 23.956C59.4831 24.748 58.9071 25.804 58.3311 27.124C57.7551 28.444 57.2871 29.836 56.9271 31.3C56.4711 33.22 55.3431 34.18 53.5431 34.18C52.8231 34.18 52.3431 33.928 52.1031 33.424C51.8871 32.896 51.7791 31.96 51.7791 30.616C51.7791 29.848 51.7911 29.236 51.8151 28.78L51.8511 25.9C51.8511 22.204 52.2231 18.352 52.9671 14.344C53.7351 10.336 54.8511 6.97597 56.3151 4.26397C57.8031 1.52797 59.5791 0.159973 61.6431 0.159973C62.7471 0.159973 63.6351 0.639973 64.3071 1.59997C65.0031 2.53597 65.3511 3.75997 65.3511 5.27197C65.3511 7.69597 64.6431 10.216 63.2271 12.832C61.8111 15.424 59.5071 18.46 56.3151 21.94C56.2431 23.188 56.2071 24.472 56.2071 25.792C56.9991 23.752 57.8751 22.096 58.8351 20.824C59.8191 19.528 60.7791 18.604 61.7151 18.052C62.6751 17.5 63.5511 17.224 64.3431 17.224C65.9031 17.224 66.6831 18.004 66.6831 19.564C66.6831 20.5 66.4191 22.192 65.8911 24.64C65.4351 26.728 65.2071 28.108 65.2071 28.78C65.2071 29.74 65.5551 30.22 66.2511 30.22C66.7311 30.22 67.2951 29.932 67.9431 29.356C68.6151 28.756 69.5031 27.796 70.6071 26.476C70.8951 26.14 71.2191 25.972 71.5791 25.972ZM60.8871 3.72397C60.4551 3.72397 59.9751 4.34797 59.4471 5.59597C58.9191 6.81997 58.4031 8.48797 57.8991 10.6C57.4191 12.688 57.0231 14.968 56.7111 17.44C58.1991 15.688 59.4231 13.78 60.3831 11.716C61.3671 9.65197 61.8591 7.77997 61.8591 6.09997C61.8591 5.33197 61.7751 4.74397 61.6071 4.33597C61.4391 3.92797 61.1991 3.72397 60.8871 3.72397Z" fill="url(#paint3_linear_2_524)"/>
<path d="M85.7254 25.972C86.0374 25.972 86.2774 26.116 86.4454 26.404C86.6374 26.692 86.7334 27.088 86.7334 27.592C86.7334 28.552 86.5054 29.296 86.0494 29.824C85.0174 31.096 83.8894 32.14 82.6654 32.956C81.4414 33.772 80.0374 34.18 78.4534 34.18C73.5574 34.18 71.1094 30.736 71.1094 23.848C71.1094 22.792 71.1454 21.724 71.2174 20.644H69.8134C69.0934 20.644 68.6014 20.512 68.3374 20.248C68.0974 19.984 67.9774 19.564 67.9774 18.988C67.9774 17.644 68.5174 16.972 69.5974 16.972H71.6494C72.0574 14.332 72.6814 11.92 73.5214 9.73598C74.3614 7.55197 75.3694 5.81197 76.5454 4.51597C77.7454 3.21997 79.0294 2.57197 80.3974 2.57197C81.4054 2.57197 82.1974 3.01597 82.7734 3.90397C83.3494 4.79197 83.6374 5.90797 83.6374 7.25197C83.6374 10.972 82.0774 14.212 78.9574 16.972H82.9894C83.3734 16.972 83.6494 17.056 83.8174 17.224C83.9854 17.392 84.0694 17.704 84.0694 18.16C84.0694 19.816 82.7134 20.644 80.0014 20.644H75.6094C75.5614 21.844 75.5374 22.78 75.5374 23.452C75.5374 25.948 75.8254 27.7 76.4014 28.708C77.0014 29.716 77.9374 30.22 79.2094 30.22C80.2414 30.22 81.1534 29.908 81.9454 29.284C82.7374 28.66 83.6734 27.724 84.7534 26.476C85.0414 26.14 85.3654 25.972 85.7254 25.972ZM79.4254 6.02798C79.0654 6.02798 78.6574 6.48398 78.2014 7.39598C77.7694 8.28398 77.3494 9.53197 76.9414 11.14C76.5574 12.724 76.2334 14.488 75.9694 16.432C77.3854 15.208 78.4414 13.84 79.1374 12.328C79.8574 10.792 80.2174 9.39997 80.2174 8.15197C80.2174 6.73597 79.9534 6.02798 79.4254 6.02798Z" fill="url(#paint4_linear_2_524)"/>
<path d="M87.4742 34.18C86.3942 34.18 85.5062 33.688 84.8102 32.704C84.1382 31.696 83.8022 30.448 83.8022 28.96C83.8022 27.16 83.9222 25.516 84.1622 24.028C84.4022 22.516 84.7982 20.92 85.3502 19.24C85.5902 18.52 85.9262 18.004 86.3582 17.692C86.7902 17.38 87.4742 17.224 88.4102 17.224C88.9382 17.224 89.2982 17.308 89.4902 17.476C89.7062 17.644 89.8142 17.896 89.8142 18.232C89.8142 18.424 89.6822 19.072 89.4182 20.176C89.1782 21.064 88.9862 21.868 88.8422 22.588C88.3622 25.108 88.1222 26.788 88.1222 27.628C88.1222 28.132 88.1822 28.492 88.3022 28.708C88.4222 28.9 88.6142 28.996 88.8782 28.996C89.2382 28.996 89.6822 28.636 90.2102 27.916C90.7622 27.196 91.3382 26.104 91.9382 24.64C92.5622 23.176 93.1622 21.376 93.7382 19.24C93.9302 18.52 94.2182 18.004 94.6022 17.692C95.0102 17.38 95.6102 17.224 96.4022 17.224C96.9542 17.224 97.3382 17.296 97.5542 17.44C97.7702 17.56 97.8782 17.8 97.8782 18.16C97.8782 18.76 97.5782 20.404 96.9782 23.092C96.3062 26.164 95.9702 28.06 95.9702 28.78C95.9702 29.236 96.0662 29.596 96.2582 29.86C96.4502 30.1 96.7022 30.22 97.0142 30.22C97.4942 30.22 98.0582 29.932 98.7062 29.356C99.3782 28.756 100.266 27.796 101.37 26.476C101.658 26.14 101.982 25.972 102.342 25.972C102.654 25.972 102.894 26.116 103.062 26.404C103.254 26.692 103.35 27.088 103.35 27.592C103.35 28.552 103.122 29.296 102.666 29.824C101.634 31.096 100.518 32.14 99.3182 32.956C98.1422 33.772 96.7982 34.18 95.2862 34.18C94.1342 34.18 93.2822 33.736 92.7302 32.848C92.2022 31.96 91.9382 30.712 91.9382 29.104C91.5302 30.736 90.9182 31.996 90.1022 32.884C89.2862 33.748 88.4102 34.18 87.4742 34.18Z" fill="url(#paint5_linear_2_524)"/>
<path d="M114.687 23.02C114.687 24.916 114.243 26.716 113.355 28.42C112.491 30.1 111.327 31.468 109.863 32.524C108.423 33.58 106.875 34.132 105.219 34.18C104.907 38.812 104.199 42.676 103.095 45.772C101.991 48.892 100.371 50.452 98.2351 50.452C96.9391 50.452 95.9791 49.984 95.3551 49.048C94.7311 48.112 94.4191 46.816 94.4191 45.16C94.4191 42.808 94.9591 40.06 96.0391 36.916C97.1191 33.796 98.7871 30.352 101.043 26.584C101.043 23.08 101.019 20.644 100.971 19.276C100.947 18.58 101.223 18.028 101.799 17.62C102.375 17.212 103.095 17.008 103.959 17.008C104.463 17.008 104.823 17.116 105.039 17.332C105.279 17.524 105.411 17.92 105.435 18.52C105.435 19.12 105.447 19.564 105.471 19.852C106.239 18.892 106.995 18.208 107.739 17.8C108.483 17.368 109.275 17.152 110.115 17.152C111.459 17.152 112.551 17.692 113.391 18.772C114.255 19.852 114.687 21.268 114.687 23.02ZM105.399 30.724C106.263 30.532 107.055 30.064 107.775 29.32C108.519 28.552 109.107 27.616 109.539 26.512C109.971 25.384 110.187 24.208 110.187 22.984C110.187 22.264 110.043 21.724 109.755 21.364C109.467 20.98 109.083 20.788 108.603 20.788C107.739 20.788 106.695 21.7 105.471 23.524C105.447 24.58 105.435 26.128 105.435 28.168C105.435 29.272 105.423 30.124 105.399 30.724ZM98.5231 46.924C99.1711 46.924 99.7111 45.508 100.143 42.676C100.575 39.868 100.851 36.364 100.971 32.164C99.9391 34.564 99.1231 36.856 98.5231 39.04C97.9231 41.224 97.6231 43.06 97.6231 44.548C97.6231 45.316 97.7191 45.904 97.9111 46.312C98.0791 46.72 98.2831 46.924 98.5231 46.924Z" fill="url(#paint6_linear_2_524)"/>
<defs>
<linearGradient id="paint0_linear_2_524" x1="-1" y1="-13" x2="128" y2="-13" gradientUnits="userSpaceOnUse">
<stop stop-color="#B49CC9"/>
<stop offset="1" stop-color="#FEC4A1" stop-opacity="0.91"/>
</linearGradient>
<linearGradient id="paint1_linear_2_524" x1="-1" y1="-13" x2="128" y2="-13" gradientUnits="userSpaceOnUse">
<stop stop-color="#B49CC9"/>
<stop offset="1" stop-color="#FEC4A1" stop-opacity="0.91"/>
</linearGradient>
<linearGradient id="paint2_linear_2_524" x1="-1" y1="-13" x2="128" y2="-13" gradientUnits="userSpaceOnUse">
<stop stop-color="#B49CC9"/>
<stop offset="1" stop-color="#FEC4A1" stop-opacity="0.91"/>
</linearGradient>
<linearGradient id="paint3_linear_2_524" x1="-1" y1="-13" x2="128" y2="-13" gradientUnits="userSpaceOnUse">
<stop stop-color="#B49CC9"/>
<stop offset="1" stop-color="#FEC4A1" stop-opacity="0.91"/>
</linearGradient>
<linearGradient id="paint4_linear_2_524" x1="-1" y1="-13" x2="128" y2="-13" gradientUnits="userSpaceOnUse">
<stop stop-color="#B49CC9"/>
<stop offset="1" stop-color="#FEC4A1" stop-opacity="0.91"/>
</linearGradient>
<linearGradient id="paint5_linear_2_524" x1="-1" y1="-13" x2="128" y2="-13" gradientUnits="userSpaceOnUse">
<stop stop-color="#B49CC9"/>
<stop offset="1" stop-color="#FEC4A1" stop-opacity="0.91"/>
</linearGradient>
<linearGradient id="paint6_linear_2_524" x1="-1" y1="-13" x2="128" y2="-13" gradientUnits="userSpaceOnUse">
<stop stop-color="#B49CC9"/>
<stop offset="1" stop-color="#FEC4A1" stop-opacity="0.91"/>
</linearGradient>
</defs>
</svg>
